HIERARCHY
ROOT Hips
{
	OFFSET -3.958830 18.904000 13.208200
	CHANNELS 6 Xposition Yposition Zposition Zrotation Yrotation Xrotation 
	JOINT LHipJoint
	{
		OFFSET 0.000000 0.000000 0.000000
		CHANNELS 3 Zrotation Yrotation Xrotation
		JOINT LeftUpLeg
		{
			OFFSET 1.800000 -1.400000 0.085000
			CHANNELS 3 Zrotation Yrotation Xrotation
			JOINT LeftLeg
			{
				OFFSET 2.215000 -6.000000 0.000000
				CHANNELS 3 Zrotation Yrotation Xrotation
				JOINT LeftFoot
				{
					OFFSET 2.500000 -6.900000 0.000000
					CHANNELS 3 Zrotation Yrotation Xrotation
					JOINT LeftToeBase
					{
						OFFSET 0.200000 -0.500000 1.950000
						CHANNELS 3 Zrotation Yrotation Xrotation
						End Site
						{
							OFFSET 0.000000 0.000000 0.000000
						}
					}
				}
			}
		}
	}
	JOINT RHipJoint
	{
		OFFSET 0.000000 0.000000 0.000000
		CHANNELS 3 Zrotation Yrotation Xrotation
		JOINT RightUpLeg
		{
			OFFSET -1.800000 -1.400000 0.085000
			CHANNELS 3 Zrotation Yrotation Xrotation
			JOINT RightLeg
			{
				OFFSET -2.215000 -6.000000 0.000000
				CHANNELS 3 Zrotation Yrotation Xrotation
				JOINT RightFoot
				{
					OFFSET -2.500000 -6.900000 0.000000
					CHANNELS 3 Zrotation Yrotation Xrotation
					JOINT RightToeBase
					{
						OFFSET -0.200000 -0.500000 1.950000
						CHANNELS 3 Zrotation Yrotation Xrotation
						End Site
						{
							OFFSET 0.000000 0.000000 0.000000
						}
					}
				}
			}
		}
	}
	JOINT LowerBack
	{
		OFFSET 0.000000 0.000000 0.000000
		CHANNELS 3 Zrotation Yrotation Xrotation
		JOINT Spine
		{
			OFFSET -0.087000 1.940000 -0.288900
			CHANNELS 3 Zrotation Yrotation Xrotation
			JOINT Spine1
			{
				OFFSET 0.000000 1.950000 0.060000
				CHANNELS 3 Zrotation Yrotation Xrotation
				JOINT Neck
				{
					OFFSET 0.000000 0.000000 0.000000
					CHANNELS 3 Zrotation Yrotation Xrotation
					JOINT Neck1
					{
						OFFSET 0.000000 1.600000 0.340000
						CHANNELS 3 Zrotation Yrotation Xrotation
						JOINT Head
						{
							OFFSET 0.000000 1.667000 -0.240000
							CHANNELS 3 Zrotation Yrotation Xrotation
							End Site
							{
								OFFSET 0.000000 0.000000 0.000000
							}
						}
					}
				}
				JOINT LeftShoulder
				{
					OFFSET 0.000000 0.000000 0.000000
					CHANNELS 3 Zrotation Yrotation Xrotation
					JOINT LeftArm
					{
						OFFSET 2.700000 1.550000 -0.730000
						CHANNELS 3 Zrotation Yrotation Xrotation
						JOINT LeftForeArm
						{
							OFFSET 5.450000 0.000000 0.000000
							CHANNELS 3 Zrotation Yrotation Xrotation
							JOINT LeftHand
							{
								OFFSET 3.450000 0.000000 0.000000
								CHANNELS 3 Zrotation Yrotation Xrotation
								JOINT LeftHandIndex1
								{
									OFFSET 0.750000 0.000000 0.000000
									CHANNELS 3 Zrotation Yrotation Xrotation
									End Site
									{
										OFFSET 0.000000 0.000000 0.000000
									}
								}
							}
						}
					}
				}
				JOINT RightShoulder
				{
					OFFSET 0.000000 0.000000 0.000000
					CHANNELS 3 Zrotation Yrotation Xrotation
					JOINT RightArm
					{
						OFFSET -2.700000 1.550000 -0.730000
						CHANNELS 3 Zrotation Yrotation Xrotation
						JOINT RightForeArm
						{
							OFFSET -5.450000 0.000000 0.000000
							CHANNELS 3 Zrotation Yrotation Xrotation
							JOINT RightHand
							{
								OFFSET -3.450000 0.000000 0.000000
								CHANNELS 3 Zrotation Yrotation Xrotation
								JOINT RightHandIndex1
								{
									OFFSET -0.750000 0.000000 0.000000
									CHANNELS 3 Zrotation Yrotation Xrotation
									End Site
									{
										OFFSET 0.000000 0.000000 0.000000
									}
								}
							}
						}
					}
				}
			}
		}
	}
}
MOTION
Frames: 10
Frame Time: 0.016667
4.595590 17.111850 10.507090 -4.858910 -48.185428 16.906017 -14.829053 11.791251 3.823700 2.734861 -4.490691 -31.454632 -11.063101 4.326961 6.362840 -0.599023 2.764294 3.677373 0.342700 0.292940 -0.170140 18.764506 -10.330798 3.641854 9.129386 9.342633 -24.662823 -9.174925 0.261335 41.676648 -0.387033 -5.266487 2.665636 0.306230 0.565410 -0.157070 -5.065869 -0.047774 -7.618306 27.648799 -3.195040 14.358535 -30.277698 -1.070720 -12.201527 9.830848 -18.033571 -10.124682 -40.132548 24.098603 9.018382 10.923250 3.043180 -2.574370 -20.085226 11.034381 -3.905361 -50.580479 2.923169 -2.865743 15.027785 -9.820316 -0.831821 -3.870137 2.924321 0.144760 0.101970 -0.384690 0.319200 -0.602375 5.326977 8.730711 25.395377 8.117898 0.404027 -144.928196 32.896496 -94.685354 1.967237 -2.232629 -0.271850 0.429480 0.040770 0.107680 
4.639580 17.114170 10.459930 -4.556644 -50.710910 17.313836 -14.735935 11.789766 3.992528 2.473516 -4.814721 -34.046205 -9.081403 4.513649 9.647291 -0.646173 2.722825 3.675808 0.343820 0.256600 -0.122780 18.786923 -10.796022 3.404646 7.177005 7.824212 -23.013470 -8.461973 -0.100669 36.592546 -0.222376 -4.577644 2.872039 0.297100 0.558840 -0.129110 -5.144589 0.627515 -7.508392 27.455090 -1.563431 13.426520 -29.813952 0.137808 -12.817239 9.051632 -18.921737 -9.258447 -40.100238 25.353852 9.362899 10.055440 4.461600 -2.487690 -19.203010 13.780192 -4.690637 -51.287331 4.705021 -3.218388 11.928346 -6.229737 -0.440796 -3.934263 2.871030 0.160330 0.107770 -0.383840 0.301780 -0.795547 5.043099 8.982333 26.672402 13.710128 3.641186 -145.962205 29.078091 -89.371603 1.979434 -2.210717 -0.286250 0.405330 0.046250 0.078140 
4.689230 17.093610 10.365310 -3.134213 -54.631760 17.436442 -14.703031 11.673575 4.341258 2.681391 -5.120095 -38.602138 -7.714043 5.432740 15.179996 -0.610559 3.137664 3.533850 0.268420 0.160100 -0.157860 18.767945 -11.137567 3.215772 5.106870 6.430863 -22.661137 -8.359593 -0.212920 30.070012 0.025811 -3.766344 3.194302 0.264200 0.649400 -0.126180 -5.154907 1.234931 -7.535888 24.287809 1.053215 13.105068 -27.761061 2.192567 -13.643877 8.265639 -19.207280 -9.119993 -38.421142 26.804614 9.622537 9.556220 6.531430 0.500980 -17.489347 15.743107 -5.063065 -53.008427 6.844633 -3.607478 12.566178 -3.605908 -0.031648 -4.085803 2.800961 0.117350 0.197200 -0.458250 0.299260 -1.309911 5.663314 9.791457 29.549402 17.528355 6.635855 -146.545248 27.026721 -87.326167 1.952755 -2.199258 -0.339730 0.407590 0.076760 0.064050 
4.746040 17.078400 10.259920 -3.466443 -57.776214 19.005664 -14.675084 11.329699 4.691372 3.810536 -4.822550 -43.928536 -6.329181 6.729593 21.098609 -0.518438 3.956002 3.231261 0.218400 0.110800 -0.185770 18.814266 -11.309586 3.126383 4.695952 5.513597 -22.419221 -7.739223 -0.539359 25.064270 0.175314 -3.250788 3.402455 0.254300 0.725860 -0.107730 -5.229140 2.023572 -7.650878 22.487127 3.382296 12.822451 -25.264344 4.139982 -14.498679 6.369171 -19.148221 -8.492034 -35.888612 27.924858 9.888971 9.430570 7.695330 1.654780 -12.641037 18.998554 -5.439464 -57.501663 7.831487 -3.831312 13.592992 -0.993726 0.453522 -4.247730 2.695699 0.070870 0.273910 -0.503970 0.298980 -2.923531 4.620012 10.038791 34.562386 21.340053 10.298369 -145.794301 27.281455 -87.682934 1.926987 -2.186278 -0.367100 0.419620 0.101010 0.067950 
4.816290 17.059140 10.157150 -8.420074 -61.752386 24.875138 -14.616409 10.960494 4.940276 7.078644 -2.825768 -48.961880 -4.841887 8.223988 25.464321 -0.333442 4.959431 2.855674 0.143580 0.024110 -0.240060 18.952146 -11.171326 3.213071 6.340801 5.723052 -22.796775 -7.076657 -0.719031 22.554072 0.263076 -3.011577 3.522901 0.184560 0.755780 -0.092360 -5.234895 2.639246 -7.919970 23.127429 6.504754 13.120072 -23.859524 7.309286 -16.190732 5.474276 -18.729543 -8.345539 -33.442467 27.917269 10.702050 8.357660 8.707830 4.578610 -9.201150 22.437667 -5.665004 -58.590057 10.307825 -5.045259 13.121208 -4.975598 0.104994 -4.271549 2.685912 0.014550 0.323260 -0.547450 0.304410 -5.081065 3.341292 10.704303 39.489486 22.085635 12.441715 -145.615952 28.813161 -91.502162 1.958364 -2.230391 -0.360290 0.350620 0.103460 0.078820 
4.909150 17.096240 10.037190 -11.584939 -65.238849 26.095261 -14.614732 11.158879 4.893106 7.817252 -0.670065 -50.718252 -0.757059 8.927807 31.008330 -0.189719 5.739959 2.513803 0.181960 0.052860 -0.210530 18.929730 -11.240612 3.202761 6.665988 5.008690 -20.774594 -6.490148 -1.062179 19.932371 0.224654 -2.793089 3.607615 0.142050 0.632610 -0.092660 -5.154715 2.675979 -7.995855 23.892732 7.408851 17.593228 -23.502415 9.795392 -16.259891 4.708708 -18.906903 -10.325250 -33.955299 26.803269 13.172691 8.447160 7.491700 1.888670 -7.042096 20.587059 -4.432601 -60.851177 11.244799 -5.666614 15.846156 -5.810224 0.268224 -4.137784 2.719390 0.100270 0.207540 -0.453600 0.298790 -5.015197 6.956232 12.036285 43.338376 21.159534 10.536258 -145.456896 30.155762 -97.169122 2.007423 -2.118887 -0.300850 0.308810 0.070390 0.076500 
4.999170 17.150510 9.928690 -14.406679 -68.397386 25.630784 -14.633064 11.608266 4.571067 7.143033 1.511585 -51.031793 6.038177 8.441738 37.305567 -0.102310 6.506226 2.192860 0.193500 0.027320 -0.102070 18.867364 -11.376877 3.199399 7.591505 2.983853 -16.039165 -7.929642 -1.103694 13.934524 0.145697 -2.577380 3.683147 0.101690 0.486090 -0.140270 -5.059393 2.456827 -7.949595 25.150204 7.042151 23.076122 -23.876164 11.615889 -15.759881 4.806220 -19.375961 -12.107500 -35.642789 26.125648 16.292419 6.518950 7.891150 -2.224450 -8.732420 17.231159 -3.415429 -59.322623 12.119296 -5.918928 18.839340 -6.942921 0.311181 -3.999916 2.679813 0.248640 0.076340 -0.352440 0.231890 -2.898102 11.408328 13.022230 44.833219 20.851768 7.115657 -142.678601 33.319804 -100.707168 2.077044 -1.864879 -0.318100 0.333720 0.062590 0.004880 
5.082500 17.174830 9.840200 -20.715115 -71.353020 30.638563 -14.566037 11.773502 4.384133 6.345184 3.380590 -53.143215 12.769452 7.315840 41.807992 0.094808 7.228598 1.940142 0.157430 -0.001070 -0.099980 18.964446 -11.253942 3.293279 8.911467 1.748807 -13.019333 -8.128953 -1.374064 8.821845 0.078642 -2.555704 3.736831 0.045390 0.446470 -0.157140 -4.946571 2.517474 -8.068919 26.822270 8.055722 25.710026 -23.870296 13.958985 -15.802172 4.563907 -19.389071 -12.850348 -35.623921 25.355075 19.574857 5.017050 8.385420 -3.010820 -10.534651 15.948382 -3.145864 -56.885024 12.606695 -5.478777 24.312764 -8.489047 0.479899 -3.969511 2.684825 0.283780 0.045360 -0.305180 0.216830 -0.601632 13.451772 13.653165 47.476156 19.856761 4.316307 -137.887634 37.123282 -99.794752 2.148307 -1.658544 -0.305260 0.343580 0.057280 0.001350 
5.143920 17.155130 9.772640 -22.708266 -72.609900 32.229812 -14.602612 11.753851 4.438136 5.002154 3.514596 -55.562325 19.028742 5.373140 46.232516 0.290289 8.021851 1.665825 0.164630 -0.009850 -0.069480 18.956507 -11.183951 3.244506 8.402920 1.561409 -12.323221 -6.827287 -1.704993 7.903427 0.052271 -2.564856 3.721395 0.023790 0.400480 -0.139170 -4.961047 2.499816 -8.131755 27.018780 8.731611 26.637979 -21.461620 15.024001 -16.149562 2.356588 -18.990477 -12.493606 -35.001623 24.786704 21.163865 4.668030 8.490710 -3.447170 -8.022440 15.908025 -2.144576 -58.508842 12.261544 -4.675828 31.666852 -8.617541 0.942954 -3.975395 2.772288 0.306810 0.023580 -0.279310 0.198190 1.281601 12.678442 12.810117 50.207612 18.406986 2.649586 -131.103868 42.981337 -96.608745 2.206950 -1.505283 -0.285570 0.302660 0.049340 -0.016920 
5.192780 17.147060 9.709630 -22.900620 -72.431190 31.102386 -14.733074 11.774121 4.544716 5.173200 2.930877 -55.790061 22.418169 3.545684 48.952704 0.417703 8.488541 1.528025 0.178060 -0.005280 -0.013350 18.834533 -11.116887 3.159116 7.675319 1.470385 -11.580752 -4.768861 -2.189172 9.078786 0.010107 -2.576844 3.727567 0.009730 0.331490 -0.181690 -4.994072 2.074944 -8.130703 27.879483 7.900481 28.063831 -19.835197 14.516838 -17.179983 0.922546 -18.549334 -11.625601 -35.068336 24.508399 23.126474 3.871730 8.975420 -5.421530 -7.780167 16.497929 -1.504210 -58.090587 11.264658 -3.552766 43.080519 -13.328315 -0.116088 -3.877428 2.826334 0.377800 -0.039510 -0.230870 0.188280 3.657878 10.463650 11.152312 53.842113 17.113878 1.948411 -119.845043 50.497754 -88.414706 2.244225 -1.069912 -0.303260 0.322410 0.015610 -0.050900 
